<?xml version="1.0" encoding="UTF-8"?>
<svg width="120" height="120" viewBox="0 0 120 120" xmlns="http://www.w3.org/2000/svg">
  <!-- Body -->
  <ellipse cx="60" cy="70" rx="35" ry="45" fill="#222831" />
  
  <!-- White belly -->
  <ellipse cx="60" cy="75" rx="25" ry="35" fill="#EEEEEE" />
  
  <!-- Head -->
  <circle cx="60" cy="40" r="25" fill="#222831" />
  
  <!-- Eyes - Open state -->
  <g class="eyes-open">
    <circle cx="48" cy="35" r="5" fill="white" />
    <circle cx="72" cy="35" r="5" fill="white" />
    <circle cx="48" cy="35" r="2.5" fill="#222831" />
    <circle cx="72" cy="35" r="2.5" fill="#222831" />
  </g>
  
  <!-- Eyes - Closed state (initially hidden) -->
  <g class="eyes-closed" style="display: none;">
    <path d="M43,35 Q48,30 53,35" stroke="white" stroke-width="2" fill="none" />
    <path d="M67,35 Q72,30 77,35" stroke="white" stroke-width="2" fill="none" />
  </g>
  
  <!-- Beak -->
  <path d="M55,45 L65,45 L60,55 Z" fill="#FF9800" />
  
  <!-- Wings -->
  <path d="M25,60 Q35,70 30,90" fill="#222831" />
  <path d="M95,60 Q85,70 90,90" fill="#222831" />
  
  <!-- Feet -->
  <path d="M50,115 L45,105 L55,105 Z" fill="#FF9800" />
  <path d="M70,115 L65,105 L75,105 Z" fill="#FF9800" />
</svg>
